<svg xmlns="http://www.w3.org/2000/svg" baseProfile="full" version="1.1" width="310px" height="310px" style="fill: none; width: 310px; height: 310px; stroke-width: 20;"><path d="M50,35 A150,45 0 0,1 200,80 A30,75 0 0,1 230,155 A45,120 0 0,1 275,275 A120,45 0 0,1 155,230 A75,45 0 0,1 80,185 A30,150 0 0,1 50,35 " style="stroke-width: 10; stroke-linecap: round; stroke-linejoin: round; stroke: rgb(17, 17, 17); fill: rgb(17, 17, 17);"/><path d="M260,260 A90,45 0 0,0 170,215 A45,45 0 0,0 215,170 A45,90 0 0,0 260,260 A0,0 0 0,0 260,260 A45,90 0 0,0 215,170 A45,45 0 0,0 170,215 A90,45 0 0,0 260,260 " style="stroke-width: 20; stroke-linecap: round; stroke-linejoin: round; stroke: rgb(187, 187, 187); fill: rgb(187, 187, 187);"/><path d="M170,215 A105,165 0 0,0 65,50 A150,120 0 0,0 215,170 A45,45 0 0,0 170,215 A0,0 0 0,0 170,215 A45,45 0 0,0 215,170 A150,120 0 0,0 65,50 A105,165 0 0,0 170,215 " style="stroke-width: 20; stroke-linecap: round; stroke-linejoin: round; stroke: rgb(255, 255, 255); fill: rgb(255, 255, 255);"/></svg>