<svg xmlns="http://www.w3.org/2000/svg" baseProfile="full" version="1.1" width="310px" height="310px" style="fill: none; width: 310px; height: 310px; stroke-width: 10;"><path d="M50,155 L275,155 A105,150 0 0,1 170,305 L155,305 A105,150 0 0,1 50,155 M200,5 L125,5 A75,90 0 0,0 50,95 L50,155 L275,155 L275,95 A75,90 0 0,0 200,5 " style="stroke-width: 10; stroke-linecap: round; stroke-linejoin: round; stroke: rgb(0, 0, 0); fill: rgb(0, 0, 0);"/><path d="M200,20 A60,75 0 0,1 260,95 L260,140 L200,140 L200,20 " style="stroke-width: 10; stroke-linecap: round; stroke-linejoin: round; stroke: rgb(255, 255, 255); fill: rgb(255, 255, 255);"/><path d="M125,20 A60,75 0 0,0 65,95 L65,140 L125,140 L125,20 M200,20 A60,75 0 0,1 260,95 L260,140 L200,140 L200,20 M65,170 L260,170 A90,120 0 0,1 170,290 L155,290 A90,120 0 0,1 65,170 M140,20 L140,20 L140,140 L185,140 L185,20 L140,20 " style="stroke-width: 10; stroke-linecap: round; stroke-linejoin: round; stroke: rgb(255, 255, 255); fill: none;"/></svg>