<svg xmlns="http://www.w3.org/2000/svg" baseProfile="full" version="1.1" width="310px" height="310px" style="fill: none; width: 310px; height: 310px; stroke-width: 20;"><path d="M50,35 A90,30 0 0,1 140,65 A105,75 0 0,1 245,140 A30,135 0 0,1 275,275 A120,30 0 0,1 155,245 A75,120 0 0,1 80,125 A30,90 0 0,1 50,35 " style="stroke-width: 10; stroke-linecap: round; stroke-linejoin: round; stroke: rgb(17, 17, 17); fill: rgb(17, 17, 17);"/><path d="M260,260 A165,150 0 0,0 95,110 A30,30 0 0,0 125,80 A135,180 0 0,0 260,260 M125,80 A30,30 0 0,0 95,110 A165,150 0 0,0 260,260 A0,0 0 0,0 260,260 A135,180 0 0,0 125,80 " style="stroke-width: 20; stroke-linecap: round; stroke-linejoin: round; stroke: rgb(187, 187, 187); fill: rgb(187, 187, 187);"/><path d="M95,95 A30,45 0 0,0 65,50 A45,30 0 0,0 110,80 A15,15 0 0,0 95,95 A0,0 0 0,0 95,95 A15,15 0 0,0 110,80 A45,30 0 0,0 65,50 A30,45 0 0,0 95,95 " style="stroke-width: 20; stroke-linecap: round; stroke-linejoin: round; stroke: rgb(255, 255, 255); fill: rgb(255, 255, 255);"/></svg>