<svg xmlns="http://www.w3.org/2000/svg" baseProfile="full" version="1.1" width="310px" height="310px" style="fill: none; width: 310px; height: 310px; stroke-width: 56;"><path d="M245,155 A0,60 0 0,1 245,215 A60,60 0 0,1 185,275 A60,0 0 0,1 125,275 A60,60 0 0,1 65,215 A0,60 0 0,1 65,155 A0,60 0 0,1 65,95 A60,60 0 0,1 125,35 A60,0 0 0,1 185,35 A60,60 0 0,1 245,95 A0,60 0 0,1 245,155 " style="stroke-width: 56; stroke-linecap: round; stroke-linejoin: round; stroke: rgb(0, 0, 0); fill: rgb(0, 0, 0);"/><path d="M65,155 A60,0 0 0,0 125,155 A0,120 0 0,0 125,35 A60,60 0 0,0 65,95 A0,60 0 0,0 65,155 " style="stroke-width: 10; stroke-linecap: round; stroke-linejoin: round; stroke: rgb(255, 255, 255); fill: rgb(255, 255, 255);"/><path d="M125,35 A60,60 0 0,0 65,95 A0,60 0 0,0 65,155 A60,0 0 0,0 125,155 A0,120 0 0,0 125,35 L125,35 L185,35 L185,155 L125,155 L125,35 M185,35 A60,60 0 0,1 245,95 A0,60 0 0,1 245,155 A60,0 0 0,1 185,155 A0,120 0 0,1 185,35 M65,155 A0,60 0 0,0 65,215 A60,60 0 0,0 125,275 A60,0 0 0,0 185,275 A60,60 0 0,0 245,215 A0,60 0 0,0 245,155 A180,0 0 0,0 65,155 " style="stroke-width: 18; stroke-linecap: round; stroke-linejoin: round; stroke: rgb(255, 255, 255); fill: none;"/></svg>